<svg width="36" height="37" viewBox="0 0 36 37" fill="none" xmlns="http://www.w3.org/2000/svg">
<g clip-path="url(#clip0_2711_5067)">
<path d="M1.5 2.08008H7.5L11.52 22.1651C11.6572 22.8557 12.0329 23.476 12.5813 23.9175C13.1298 24.359 13.816 24.5936 14.52 24.5801H29.1C29.804 24.5936 30.4902 24.359 31.0387 23.9175C31.5871 23.476 31.9628 22.8557 32.1 22.1651L34.5 9.58008H9M15 32.0801C15 32.9085 14.3284 33.5801 13.5 33.5801C12.6716 33.5801 12 32.9085 12 32.0801C12 31.2517 12.6716 30.5801 13.5 30.5801C14.3284 30.5801 15 31.2517 15 32.0801ZM31.5 32.0801C31.5 32.9085 30.8284 33.5801 30 33.5801C29.1716 33.5801 28.5 32.9085 28.5 32.0801C28.5 31.2517 29.1716 30.5801 30 30.5801C30.8284 30.5801 31.5 31.2517 31.5 32.0801Z" stroke="#1E1E1E" stroke-width="4" stroke-linecap="round" stroke-linejoin="round"/>
</g>
<defs>
<clipPath id="clip0_2711_5067">
<rect width="36" height="36" fill="white" transform="translate(0 0.580078)"/>
</clipPath>
</defs>
</svg>